<?xml version="1.0" encoding="UTF-8"?>
<svg version="1.1" xmlns="http://www.w3.org/2000/svg" width="2000" height="2000">
<path d="M0 0 C660 0 1320 0 2000 0 C2000 660 2000 1320 2000 2000 C1340 2000 680 2000 0 2000 C0 1340 0 680 0 0 Z " fill="#FEFEFE" transform="translate(0,0)"/>
<path d="M0 0 C0 40.92 0 81.84 0 124 C-2.97 124 -5.94 124 -9 124 C-9.02187378 123.01157104 -9.02187378 123.01157104 -9.04418945 122.00317383 C-9.63217513 98.20741444 -12.44393197 79.40951303 -30 62 C-40.56530423 52.74919707 -54.34627307 47.68455168 -68.32702637 47.7215271 C-69.5255932 47.7128385 -69.5255932 47.7128385 -70.74837351 47.70397437 C-73.40455649 47.68707682 -76.06056464 47.68410676 -78.71679688 47.68115234 C-80.62928691 47.67184709 -82.54177291 47.66167753 -84.45425415 47.65071106 C-89.6312927 47.62346442 -94.80830412 47.60827745 -99.98539543 47.59528303 C-105.40130593 47.57962915 -110.81716122 47.55284612 -116.23303223 47.5272522 C-126.48212594 47.4805044 -136.73123008 47.44374092 -146.98037577 47.41057932 C-158.65147378 47.37232969 -170.32251628 47.32292696 -181.99356747 47.27259517 C-205.99567048 47.16933478 -229.99780916 47.0800552 -254 47 C-253.95596362 104.1422358 -253.90835544 161.28446789 -253.84101868 218.42668152 C-253.84002311 219.27241515 -253.83902754 220.11814879 -253.83800181 220.98951072 C-253.81634323 239.36961658 -253.79402054 257.74972159 -253.77101372 276.12982582 C-253.75973521 285.14343516 -253.74860345 294.15704468 -253.73754883 303.1706543 C-253.73644626 304.06761641 -253.7353437 304.96457851 -253.73420772 305.88872129 C-253.69853971 334.9614169 -253.67256216 364.03411134 -253.65161031 393.10682096 C-253.63002824 422.98300764 -253.59866897 452.85916848 -253.55500887 482.73533144 C-253.54884663 486.9552089 -253.54279616 491.17508651 -253.53681374 495.39496422 C-253.53504241 496.6407619 -253.53504241 496.6407619 -253.53323531 497.91172721 C-253.51451441 511.28055551 -253.50609911 524.64937138 -253.50153876 538.01821119 C-253.496734 551.45867485 -253.48106956 564.89909113 -253.45433434 578.33952937 C-253.43878045 586.32455975 -253.43153884 594.30949665 -253.43623071 602.29454134 C-253.43881731 608.25820446 -253.42581195 614.22172663 -253.40676448 620.18536433 C-253.4014903 622.59738219 -253.40126825 625.00941749 -253.40660437 627.42143521 C-253.41312145 630.70130165 -253.40120108 633.98061381 -253.38476086 637.26043415 C-253.39103755 638.19574861 -253.39731425 639.13106307 -253.40378115 640.09472039 C-253.25846502 655.84701953 -246.9346108 670.96556114 -235.90234375 682.12109375 C-222.52874162 694.59840508 -207.0417355 700.08307052 -189 700.625 C-187.93910156 700.66367188 -186.87820313 700.70234375 -185.78515625 700.7421875 C-183.19036585 700.83569346 -180.59520776 700.91889976 -178 701 C-178 704.3 -178 707.6 -178 711 C-249.61 711 -321.22 711 -395 711 C-395 707.7 -395 704.4 -395 701 C-393.55109375 700.96261719 -392.1021875 700.92523437 -390.609375 700.88671875 C-369.50007502 700.22739557 -350.89714896 696.37783518 -335.55859375 680.86328125 C-331.71618056 676.56329824 -328.71099448 672.07930708 -326 667 C-325.60296875 666.27425781 -325.2059375 665.54851563 -324.796875 664.80078125 C-317.78273273 650.64163585 -318.56692625 635.01178553 -318.60127258 619.65200806 C-318.59582827 617.17741634 -318.58907469 614.70282723 -318.58113068 612.22824228 C-318.56689336 606.86479536 -318.56182815 601.50145866 -318.56500816 596.1380024 C-318.5696861 588.16288773 -318.5571431 580.18786359 -318.54117843 572.21276683 C-318.51479991 558.79445 -318.50222815 545.37615382 -318.49761391 531.95781326 C-318.49300193 518.67821531 -318.48219896 505.39864597 -318.46318626 492.11906052 C-318.46200614 491.29237384 -318.46082601 490.46568717 -318.45961012 489.61394939 C-318.45358443 485.41536786 -318.4474487 481.21678651 -318.44127061 477.01820521 C-318.39774597 447.30478759 -318.36801374 417.59137067 -318.34643555 387.87792969 C-318.3254452 359.01756768 -318.29818075 330.15722269 -318.26245117 301.296875 C-318.26135169 300.40676499 -318.26025222 299.51665497 -318.25911942 298.59957193 C-318.24807078 289.66045671 -318.23689489 280.72134165 -318.2256258 271.7822267 C-318.20267368 253.57335506 -318.18057066 235.36448243 -318.15898132 217.15560913 C-318.1579877 216.3184543 -318.15699409 215.48129948 -318.15597036 214.61877632 C-318.0897521 158.74586474 -318.04338691 102.8729334 -318 47 C-346.51000502 47.03642846 -375.01990233 47.09326523 -403.52980745 47.17792095 C-406.90870584 47.18793637 -410.28760471 47.19778084 -413.66650391 47.20751953 C-414.33907801 47.2094609 -415.01165211 47.21140228 -415.70460725 47.21340248 C-426.54245349 47.24427971 -437.38027865 47.26136297 -448.21816051 47.27319422 C-459.3692948 47.28568032 -470.52032795 47.31363831 -481.6713953 47.35461307 C-487.92196862 47.37710447 -494.17238679 47.39291814 -500.42300415 47.39188385 C-506.32624204 47.39112989 -512.22913858 47.4093716 -518.13228798 47.44116783 C-520.27979279 47.4495713 -522.42733634 47.45148326 -524.57485008 47.44580269 C-563.26562154 47.3572227 -599.9579857 56.82394285 -628.5 84.125 C-648.27380292 104.40081766 -657.45695721 128.45488823 -657.29321289 156.63134766 C-657.02256301 174.14718662 -652.09725143 190.8677723 -643.74975586 206.27563477 C-643 208 -643 208 -643 211 C-646.96 212.98 -646.96 212.98 -651 215 C-660.51613834 204.00797909 -667.87660209 192.19729341 -674 179 C-674.57041016 177.78957031 -674.57041016 177.78957031 -675.15234375 176.5546875 C-685.63724512 152.57789418 -683.37078996 122.71985337 -674.42578125 98.65234375 C-660.52287267 63.5878143 -630.210925 43.94744686 -596.90625 29.21533203 C-590.10029986 26.36922822 -583.20281057 24.52399561 -576 23 C-574.49759766 22.67394775 -574.49759766 22.67394775 -572.96484375 22.34130859 C-567.59022605 21.18582985 -562.20786163 20.07016507 -556.8125 19.015625 C-555.49185547 18.75700684 -555.49185547 18.75700684 -554.14453125 18.49316406 C-543.82414674 16.87459444 -533.56648431 16.85234165 -523.14768982 16.85523987 C-521.32958924 16.85210226 -519.51148937 16.84852656 -517.69339043 16.84455246 C-512.71335097 16.83489275 -507.73332297 16.83131022 -502.75327551 16.82870948 C-497.37527589 16.82480354 -491.99728627 16.81516646 -486.61929321 16.80615234 C-477.30120995 16.79123133 -467.98312747 16.77967832 -458.66503716 16.77020454 C-445.16549113 16.75630211 -431.66596364 16.73510862 -418.16643096 16.71177601 C-396.22725068 16.67387179 -374.28806703 16.63890875 -352.34887695 16.60717773 C-351.03624739 16.60527724 -349.72361782 16.60337675 -348.3712116 16.60141867 C-329.77100153 16.574625 -311.17078885 16.55074 -292.5705734 16.52803367 C-291.2624917 16.52643637 -289.95440999 16.52483906 -288.60668945 16.52319336 C-286.64697436 16.52080316 -286.64697436 16.52080316 -284.64766907 16.51836468 C-262.80746847 16.49152982 -240.96728754 16.45710102 -219.12710816 16.41653961 C-205.67577022 16.39185981 -192.22445338 16.37348017 -178.77309645 16.363384 C-169.53844356 16.35595181 -160.30381901 16.34136403 -151.06918495 16.32131977 C-145.75373312 16.31001135 -140.43832681 16.30178889 -135.12286186 16.30232811 C-114.33138396 16.30240009 -93.69257075 16.29589905 -73 14 C-71.49796723 13.83626111 -71.49796723 13.83626111 -69.96559036 13.66921437 C-48.38931532 11.29788969 -27.0169234 7.09455147 -6.2109375 0.8828125 C-3 0 -3 0 0 0 Z " fill="#010101" transform="translate(1178,452)"/>
<path d="M0 0 C1.32237419 0.01665459 1.32237419 0.01665459 2.67146301 0.03364563 C3.67227402 0.03402328 4.67308502 0.03440094 5.70422363 0.03479004 C6.78242874 0.06059647 7.86063385 0.08640289 8.97151184 0.11299133 C10.07706924 0.12006607 11.18262665 0.12714081 12.32168579 0.13442993 C15.85798891 0.16245209 19.39271735 0.22520879 22.92854309 0.28877258 C25.32370254 0.31384516 27.71888677 0.33666014 30.11408997 0.35713196 C35.99027963 0.4123044 41.86554889 0.4960095 47.74104309 0.60127258 C46.57657647 3.52082171 45.39943257 6.42969849 44.15510559 9.31611633 C31.4472276 39.15785378 28.08380878 71.1177347 39.31526184 102.06221008 C49.38980792 127.06916555 66.42330197 142.99039478 87.266922 159.30366516 C91.61493823 162.70751044 95.93397332 166.14580135 100.24104309 169.60127258 C106.7965043 174.85782674 113.39243078 180.06069532 120.00715637 185.24238586 C122.92071136 187.52580561 125.83068502 189.81378061 128.74104309 192.10127258 C129.90769282 193.01796081 131.07435948 193.93462748 132.24104309 194.85127258 C134.57437642 196.68460592 136.90770976 198.51793925 139.24104309 200.35127258 C139.81846252 200.80494202 140.39588196 201.25861145 140.99079895 201.72602844 C142.15834719 202.64342267 143.32582758 203.56090325 144.49324036 204.47846985 C147.39587099 206.75971503 150.29963583 209.03948472 153.20588684 211.31611633 C159.8787237 216.54617766 166.51858545 221.81477558 173.13313293 227.11836243 C179.05998949 231.86629491 185.02897901 236.55933974 191.00715637 241.24238586 C194.50550755 243.98412378 197.99902259 246.73202215 201.4934845 249.47871399 C204.39606732 251.75983497 207.29972582 254.03955522 210.20588684 256.31611633 C216.87583806 261.54391594 223.51343207 266.80950056 230.12434387 272.11177063 C234.41490112 275.5496814 238.72666286 278.9592158 243.05354309 282.35127258 C260.57049229 296.09574992 277.53734791 310.22166168 293.30354309 325.97627258 C294.18461731 326.84510071 295.06569153 327.71392883 295.97346497 328.60908508 C302.00035536 334.62263181 307.47661776 340.91311053 312.74104309 347.60127258 C313.5576239 348.62897766 313.5576239 348.62897766 314.39070129 349.67744446 C347.10989041 391.26363725 367.33174551 442.84361319 366.94685364 496.05366516 C366.92854125 498.66403502 366.92634534 501.27404801 366.92658997 503.88447571 C366.9001877 517.36693939 366.57100893 530.59058834 363.55354309 543.78877258 C363.3335968 544.76854065 363.11365051 545.74830872 362.88703918 546.75776672 C359.36857994 561.98428742 354.55118788 576.5304809 347.74104309 590.60127258 C347.38026672 591.3487677 347.01949036 592.09626282 346.64778137 592.8664093 C337.9715515 610.59737463 326.92299721 625.96455326 313.74104309 640.60127258 C313.22477356 641.17925598 312.70850403 641.75723938 312.17658997 642.35273743 C306.36051277 648.84807766 300.46423787 655.03097221 293.74104309 660.60127258 C292.80002747 661.43013977 291.85901184 662.25900696 290.88948059 663.11299133 C259.39410319 690.76268958 220.1314226 705.42991388 179.24104309 711.91377258 C178.02315094 712.10776642 178.02315094 712.10776642 176.78065491 712.30567932 C160.88111439 714.80881281 145.20075615 715.80966593 129.11604309 715.78877258 C128.32456879 715.78850067 127.53309448 715.78822876 126.71763611 715.78794861 C114.61479413 715.76886834 102.73444103 715.3337117 90.74104309 713.60127258 C89.97695129 713.49943665 89.2128595 713.39760071 88.4256134 713.29267883 C46.26168979 707.64992326 4.60840809 692.22035575 -28.25895691 664.60127258 C-28.25895691 664.27127258 -28.25895691 663.94127258 -28.25895691 663.60127258 C-20.89481162 663.43703139 -13.53107871 663.31369087 -6.16545391 663.23858738 C-2.74290696 663.20248868 0.67836231 663.15377429 4.10017395 663.07319641 C19.87769144 662.72926445 33.32855277 662.93998188 47.75495911 669.72976685 C88.56314706 687.63664803 146.99736088 680.94275867 187.47541809 665.69502258 C231.3296435 648.50847871 264.52375827 618.68672358 283.51301575 575.49726868 C293.10020252 552.88828071 297.96977567 528.17969757 297.99104309 503.66377258 C297.99171783 502.96675232 297.99239258 502.26973206 297.99308777 501.55158997 C297.97719641 491.22844571 297.39578569 481.64828623 294.74104309 471.60127258 C294.41726027 470.17106422 294.09714045 468.74002314 293.78010559 467.30830383 C286.20578852 434.53750395 270.00926755 404.60811339 247.74104309 379.60127258 C247.08434631 378.852005 247.08434631 378.852005 246.41438293 378.08760071 C236.22328688 366.47299846 224.97747391 356.03504784 212.74104309 346.60127258 C211.0828251 345.3005365 209.42762192 343.99601492 207.77229309 342.69160461 C205.97711752 341.27780543 204.17976005 339.86682908 202.38166809 338.45674133 C198.83303686 335.67381743 195.28679689 332.8878612 191.74104309 330.10127258 C190.57438773 329.18459153 189.40772105 328.26792488 188.24104309 327.35127258 C185.90770976 325.51793925 183.57437642 323.68460592 181.24104309 321.85127258 C180.66362366 321.39760315 180.08620422 320.94393372 179.49128723 320.47651672 C178.32373899 319.5591225 177.1562586 318.64164192 175.98884583 317.72407532 C173.08621519 315.44283014 170.18245035 313.16306044 167.27619934 310.88642883 C161.92409211 306.69126916 156.58461984 302.48298679 151.28596497 298.22041321 C145.35432958 293.4489084 139.36769314 288.7658753 133.30354309 284.16377258 C127.01642526 279.3912883 120.86262338 274.48299084 114.76081848 269.47651672 C109.99592019 265.58211182 105.14567919 261.81771815 100.24104309 258.10127258 C93.97258024 253.35139909 87.84027269 248.46474303 81.76057434 243.47627258 C76.99570862 239.58200119 72.14550899 235.81775916 67.24104309 232.10127258 C59.50169912 226.23442211 51.9597835 220.14985312 44.44953918 213.99385071 C42.19003566 212.15215192 39.90384931 210.34513182 37.61604309 208.53877258 C22.84687654 196.69861721 9.51994412 184.56148626 -0.91906929 168.63755035 C-1.79100813 167.312432 -2.67554942 165.99549271 -3.57438469 164.68846893 C-13.13561544 150.49617849 -13.72719826 137.28606804 -13.50341725 120.52376652 C-13.46627097 117.06219787 -13.48167091 113.60075981 -13.48904419 110.13905334 C-13.49347802 104.33603459 -13.45833814 98.53432808 -13.39787292 92.73164368 C-13.32882644 86.06504559 -13.32020765 79.40046525 -13.34438521 72.73359895 C-13.36670254 66.25937521 -13.34893273 59.78585538 -13.31248283 53.31171417 C-13.29760944 50.58311394 -13.29566142 47.85498801 -13.30471992 45.12636566 C-13.33082379 18.08422419 -13.33082379 18.08422419 -5.25895691 5.60127258 C-4.79092651 4.66368607 -4.32289612 3.72609955 -3.84068298 2.76010132 C-2.25895691 0.60127258 -2.25895691 0.60127258 0 0 Z " fill="#010101" transform="translate(978.2589569091797,540.3987274169922)"/>
<path d="M0 0 C10.89 0 21.78 0 33 0 C33.17035859 12.08329172 33.3385654 24.1665889 33.5 36.25 C33.51187725 37.13876076 33.5237545 38.02752151 33.53599167 38.94321442 C33.9042499 66.63012007 34.15686193 94.310249 34 122 C30.7 122 27.4 122 24 122 C23.91363281 120.68128906 23.82726563 119.36257813 23.73828125 118.00390625 C22.0810345 95.74260057 16.3568598 73.3568598 0 57 C-0.09370624 55.22008076 -0.11744271 53.43643261 -0.11352539 51.65405273 C-0.11344986 50.5129454 -0.11337433 49.37183807 -0.11329651 48.19615173 C-0.10813522 46.9545076 -0.10297394 45.71286346 -0.09765625 44.43359375 C-0.0962413 43.16983414 -0.09482635 41.90607452 -0.09336853 40.60401917 C-0.08870582 37.23875111 -0.0797148 33.8735501 -0.06866455 30.50830078 C-0.05844846 27.07650341 -0.05381578 23.64469892 -0.04882812 20.21289062 C-0.03862263 13.47522246 -0.01905091 6.73767229 0 0 Z " fill="#020202" transform="translate(1220,466)"/>
</svg>
